<?xml version="1.0" encoding="UTF-8"?>
<svg width="212px" height="71px" viewBox="0 0 212 71" version="1.1" xmlns="http://www.w3.org/2000/svg" xmlns:xlink="http://www.w3.org/1999/xlink">
    <!-- Generator: Sketch 40.3 (33839) - http://www.bohemiancoding.com/sketch -->
    <title>On Dark Background</title>
    <desc>Created with Sketch.</desc>
    <defs></defs>
    <g id="Page-1" stroke="none" stroke-width="1" fill="none" fill-rule="evenodd">
        <g id="Acme-Logo-#10" transform="translate(-144.000000, -340.000000)" fill="#FEFEFE">
            <g id="On-Dark-Background" transform="translate(144.000000, 340.000000)">
                <g id="Symbol">
                    <path d="M16.0531,51.2369 L23.8061,43.4839 L39.5541,43.4839 L45.5931,64.6859 L16.0531,51.2369 Z M5.2041,24.3449 L19.6081,26.1779 L19.6081,41.4509 C19.6081,41.5989 19.6251,41.7439 19.6551,41.8829 L12.7971,48.7409 L5.2041,24.3449 Z M19.6081,22.0779 L6.6911,20.4339 L19.6081,7.5179 L19.6081,22.0779 Z M47.9881,12.0599 L36.0371,24.1699 L23.6751,22.5959 L23.6751,5.4689 L47.9881,12.0599 Z M23.6751,39.4169 L23.6751,26.6959 L35.1901,28.1619 L38.3961,39.4169 L23.6751,39.4169 Z M57.6231,39.4169 L42.6251,39.4169 L39.0591,26.8979 L50.9601,14.8379 L57.6231,39.4169 Z M49.1341,62.2689 L43.7831,43.4839 L57.1201,43.4839 L49.1341,62.2689 Z M62.2441,40.9189 L54.0041,10.5189 C53.8151,9.8219 53.2701,9.2769 52.5731,9.0879 L22.1731,0.8479 C21.5621,0.6819 20.9091,0.8109 20.4061,1.1959 C20.3721,1.2209 20.3431,1.2499 20.3111,1.2779 L20.2031,1.1699 L0.8841,20.4899 L0.8861,20.4919 C0.8441,20.5339 0.8021,20.5749 0.7631,20.6209 C0.3191,21.1509 0.1741,21.8709 0.3801,22.5319 L9.5511,51.9999 C9.7241,52.5529 10.1231,53.0059 10.6511,53.2459 L47.9111,70.2109 C48.1811,70.3339 48.4681,70.3939 48.7531,70.3939 C49.2311,70.3939 49.7041,70.2249 50.0801,69.9009 C50.3221,69.6939 50.5031,69.4359 50.6221,69.1539 L50.6251,69.1559 L61.8621,42.7259 C61.8731,42.7119 61.8861,42.6999 61.8961,42.6859 C62.2811,42.1829 62.4091,41.5299 62.2441,40.9189 L62.2441,40.9189 Z" id="Fill-13"></path>
                </g>
                <g id="Acme" transform="translate(84.000000, 24.000000)">
                    <path d="M11.4637,5.3649 L8.0947,14.6629 L14.8337,14.6629 L11.4637,5.3649 Z M17.4257,22.3749 L16.0967,18.7129 L6.8307,18.7129 L5.4697,22.3749 L0.2207,22.3749 L8.5797,0.7639 L14.3477,0.7639 L22.6737,22.3749 L17.4257,22.3749 Z" id="Fill-15"></path>
                    <path d="M35.5037,11.5856 C35.5037,4.9436 40.5257,0.4076 47.0057,0.4076 C51.7677,0.4076 54.5217,2.9996 56.0447,5.6886 L52.0917,7.6326 C51.1847,5.8836 49.2407,4.4896 47.0057,4.4896 C43.0847,4.4896 40.2337,7.5036 40.2337,11.5856 C40.2337,15.6676 43.0847,18.6806 47.0057,18.6806 C49.2407,18.6806 51.1847,17.3206 52.0917,15.5376 L56.0447,17.4496 C54.4897,20.1386 51.7677,22.7636 47.0057,22.7636 C40.5257,22.7636 35.5037,18.2276 35.5037,11.5856" id="Fill-17"></path>
                    <polygon id="Fill-19" points="90.5503 22.3744 90.5503 7.2434 84.4593 22.3744 82.4503 22.3744 76.3593 7.2434 76.3593 22.3744 71.7583 22.3744 71.7583 0.7644 78.2063 0.7644 83.4553 13.8204 88.7033 0.7644 95.1833 0.7644 95.1833 22.3744"></polygon>
                    <polygon id="Fill-21" points="112.4194 22.3744 112.4194 0.7644 127.7124 0.7644 127.7124 4.8134 117.0204 4.8134 117.0204 9.3824 127.4854 9.3824 127.4854 13.4324 117.0204 13.4324 117.0204 18.3244 127.7124 18.3244 127.7124 22.3744"></polygon>
                </g>
            </g>
        </g>
    </g>
</svg>